<mxfile host="app.diagrams.net" modified="2023-03-08T09:59:20.822Z" agent="5.0 (Windows)" etag="C8AWPRxL0YxXy3ljc-U6" version="21.0.2" type="github">
  <diagram name="Strona-1" id="R561FpOyYYMHuQlREUN_">
    <mxGraphModel dx="1434" dy="782" grid="1" gridSize="10" guides="1" tooltips="1" connect="1" arrows="1" fold="1" page="1" pageScale="1" pageWidth="827" pageHeight="1169" math="0" shadow="0">
      <root>
        <mxCell id="0" />
        <mxCell id="1" parent="0" />
        <mxCell id="Vtxkw3gODDPTLdR4t3xw-1" value="&lt;font style=&quot;font-size: 24px;&quot;&gt;Stop&lt;/font&gt;" style="ellipse;whiteSpace=wrap;html=1;" vertex="1" parent="1">
          <mxGeometry x="354" y="620" width="120" height="80" as="geometry" />
        </mxCell>
        <mxCell id="Vtxkw3gODDPTLdR4t3xw-6" style="edgeStyle=orthogonalEdgeStyle;rounded=0;orthogonalLoop=1;jettySize=auto;html=1;entryX=0.5;entryY=0;entryDx=0;entryDy=0;" edge="1" parent="1" source="Vtxkw3gODDPTLdR4t3xw-2" target="Vtxkw3gODDPTLdR4t3xw-3">
          <mxGeometry relative="1" as="geometry" />
        </mxCell>
        <mxCell id="Vtxkw3gODDPTLdR4t3xw-2" value="&lt;font style=&quot;font-size: 24px;&quot;&gt;start&lt;/font&gt;" style="ellipse;whiteSpace=wrap;html=1;" vertex="1" parent="1">
          <mxGeometry x="354" y="50" width="120" height="80" as="geometry" />
        </mxCell>
        <mxCell id="Vtxkw3gODDPTLdR4t3xw-14" style="edgeStyle=orthogonalEdgeStyle;rounded=0;orthogonalLoop=1;jettySize=auto;html=1;entryX=0.5;entryY=0;entryDx=0;entryDy=0;" edge="1" parent="1" source="Vtxkw3gODDPTLdR4t3xw-3" target="Vtxkw3gODDPTLdR4t3xw-8">
          <mxGeometry relative="1" as="geometry">
            <mxPoint x="414" y="310" as="targetPoint" />
          </mxGeometry>
        </mxCell>
        <mxCell id="Vtxkw3gODDPTLdR4t3xw-3" value="&lt;div&gt;pobierz a&lt;/div&gt;&lt;div&gt;a =[1,2,3,4]&lt;/div&gt;&lt;div&gt;i =0 &lt;br&gt;&lt;/div&gt;&lt;div&gt;j = a długosc&lt;br&gt;&lt;/div&gt;" style="rounded=0;whiteSpace=wrap;html=1;" vertex="1" parent="1">
          <mxGeometry x="354" y="190" width="120" height="60" as="geometry" />
        </mxCell>
        <mxCell id="Vtxkw3gODDPTLdR4t3xw-24" style="edgeStyle=orthogonalEdgeStyle;rounded=0;orthogonalLoop=1;jettySize=auto;html=1;entryX=1;entryY=0.5;entryDx=0;entryDy=0;" edge="1" parent="1" source="Vtxkw3gODDPTLdR4t3xw-8" target="Vtxkw3gODDPTLdR4t3xw-23">
          <mxGeometry relative="1" as="geometry" />
        </mxCell>
        <mxCell id="Vtxkw3gODDPTLdR4t3xw-27" style="edgeStyle=orthogonalEdgeStyle;rounded=0;orthogonalLoop=1;jettySize=auto;html=1;entryX=0;entryY=0.5;entryDx=0;entryDy=0;" edge="1" parent="1" source="Vtxkw3gODDPTLdR4t3xw-8" target="Vtxkw3gODDPTLdR4t3xw-26">
          <mxGeometry relative="1" as="geometry" />
        </mxCell>
        <mxCell id="Vtxkw3gODDPTLdR4t3xw-8" value="&lt;div&gt;a=[i]=b[j]&lt;/div&gt;" style="rhombus;whiteSpace=wrap;html=1;rounded=0;" vertex="1" parent="1">
          <mxGeometry x="374" y="310" width="80" height="80" as="geometry" />
        </mxCell>
        <mxCell id="Vtxkw3gODDPTLdR4t3xw-33" style="edgeStyle=orthogonalEdgeStyle;rounded=0;orthogonalLoop=1;jettySize=auto;html=1;entryX=0;entryY=0.5;entryDx=0;entryDy=0;" edge="1" parent="1" source="Vtxkw3gODDPTLdR4t3xw-23" target="Vtxkw3gODDPTLdR4t3xw-1">
          <mxGeometry relative="1" as="geometry">
            <Array as="points">
              <mxPoint x="160" y="660" />
            </Array>
          </mxGeometry>
        </mxCell>
        <mxCell id="Vtxkw3gODDPTLdR4t3xw-23" value="Nie jest palindromem" style="rounded=0;whiteSpace=wrap;html=1;" vertex="1" parent="1">
          <mxGeometry x="100" y="320" width="120" height="60" as="geometry" />
        </mxCell>
        <mxCell id="Vtxkw3gODDPTLdR4t3xw-25" value="Nie" style="text;html=1;strokeColor=none;fillColor=none;align=center;verticalAlign=middle;whiteSpace=wrap;rounded=0;" vertex="1" parent="1">
          <mxGeometry x="270" y="310" width="60" height="30" as="geometry" />
        </mxCell>
        <mxCell id="Vtxkw3gODDPTLdR4t3xw-30" style="edgeStyle=orthogonalEdgeStyle;rounded=0;orthogonalLoop=1;jettySize=auto;html=1;entryX=0.5;entryY=0;entryDx=0;entryDy=0;" edge="1" parent="1" source="Vtxkw3gODDPTLdR4t3xw-26" target="Vtxkw3gODDPTLdR4t3xw-29">
          <mxGeometry relative="1" as="geometry" />
        </mxCell>
        <mxCell id="Vtxkw3gODDPTLdR4t3xw-26" value="&lt;div&gt;i=1&lt;/div&gt;&lt;div&gt;j=1&lt;br&gt;&lt;/div&gt;" style="rounded=0;whiteSpace=wrap;html=1;" vertex="1" parent="1">
          <mxGeometry x="590" y="320" width="120" height="60" as="geometry" />
        </mxCell>
        <mxCell id="Vtxkw3gODDPTLdR4t3xw-32" style="edgeStyle=orthogonalEdgeStyle;rounded=0;orthogonalLoop=1;jettySize=auto;html=1;entryX=1;entryY=0.5;entryDx=0;entryDy=0;" edge="1" parent="1" source="Vtxkw3gODDPTLdR4t3xw-29" target="Vtxkw3gODDPTLdR4t3xw-31">
          <mxGeometry relative="1" as="geometry" />
        </mxCell>
        <mxCell id="Vtxkw3gODDPTLdR4t3xw-37" style="edgeStyle=orthogonalEdgeStyle;rounded=0;orthogonalLoop=1;jettySize=auto;html=1;entryX=0.5;entryY=0;entryDx=0;entryDy=0;" edge="1" parent="1" source="Vtxkw3gODDPTLdR4t3xw-29" target="Vtxkw3gODDPTLdR4t3xw-8">
          <mxGeometry relative="1" as="geometry">
            <Array as="points">
              <mxPoint x="790" y="460" />
              <mxPoint x="790" y="290" />
              <mxPoint x="414" y="290" />
            </Array>
          </mxGeometry>
        </mxCell>
        <mxCell id="Vtxkw3gODDPTLdR4t3xw-29" value="K = j" style="rounded=0;whiteSpace=wrap;html=1;" vertex="1" parent="1">
          <mxGeometry x="590" y="430" width="120" height="60" as="geometry" />
        </mxCell>
        <mxCell id="Vtxkw3gODDPTLdR4t3xw-34" style="edgeStyle=orthogonalEdgeStyle;rounded=0;orthogonalLoop=1;jettySize=auto;html=1;entryX=0.5;entryY=0;entryDx=0;entryDy=0;" edge="1" parent="1" source="Vtxkw3gODDPTLdR4t3xw-31" target="Vtxkw3gODDPTLdR4t3xw-1">
          <mxGeometry relative="1" as="geometry" />
        </mxCell>
        <mxCell id="Vtxkw3gODDPTLdR4t3xw-31" value="słowo jest palindromem" style="rounded=0;whiteSpace=wrap;html=1;" vertex="1" parent="1">
          <mxGeometry x="354" y="430" width="120" height="60" as="geometry" />
        </mxCell>
        <mxCell id="Vtxkw3gODDPTLdR4t3xw-35" value="Tak" style="text;html=1;strokeColor=none;fillColor=none;align=center;verticalAlign=middle;whiteSpace=wrap;rounded=0;" vertex="1" parent="1">
          <mxGeometry x="490" y="310" width="60" height="30" as="geometry" />
        </mxCell>
        <mxCell id="Vtxkw3gODDPTLdR4t3xw-38" value="Nie" style="text;html=1;strokeColor=none;fillColor=none;align=center;verticalAlign=middle;whiteSpace=wrap;rounded=0;" vertex="1" parent="1">
          <mxGeometry x="720" y="420" width="60" height="30" as="geometry" />
        </mxCell>
        <mxCell id="Vtxkw3gODDPTLdR4t3xw-39" value="Tak" style="text;html=1;strokeColor=none;fillColor=none;align=center;verticalAlign=middle;whiteSpace=wrap;rounded=0;" vertex="1" parent="1">
          <mxGeometry x="500" y="420" width="60" height="30" as="geometry" />
        </mxCell>
      </root>
    </mxGraphModel>
  </diagram>
</mxfile>
